<svg width="32" height="32" viewBox="0 0 32 32" fill="none" xmlns="http://www.w3.org/2000/svg">
<rect width="32" height="32" rx="16" fill="#C4CAFF"/>
<path d="M16 11.5C16 12.6935 15.5259 13.8381 14.682 14.682C13.8381 15.5259 12.6935 16 11.5 16C10.3065 16 9.16193 15.5259 8.31802 14.682C7.47411 13.8381 7 12.6935 7 11.5C7 10.3065 7.47411 9.16193 8.31802 8.31802C9.16193 7.47411 10.3065 7 11.5 7C12.6935 7 13.8381 7.47411 14.682 8.31802C15.5259 9.16193 16 10.3065 16 11.5ZM11.5 9C11.3674 9 11.2402 9.05268 11.1464 9.14645C11.0527 9.24021 11 9.36739 11 9.5V11.5C11 11.6326 11.0527 11.7598 11.1464 11.8536C11.2402 11.9473 11.3674 12 11.5 12H13C13.1326 12 13.2598 11.9473 13.3536 11.8536C13.4473 11.7598 13.5 11.6326 13.5 11.5C13.5 11.3674 13.4473 11.2402 13.3536 11.1464C13.2598 11.0527 13.1326 11 13 11H12V9.5C12 9.36739 11.9473 9.24021 11.8536 9.14645C11.7598 9.05268 11.6326 9 11.5 9ZM9 18.562C9 17.849 9.302 17.192 9.797 16.732C10.347 16.9103 10.9218 17.0007 11.5 17C13.36 17 15.005 16.077 16 14.663V16H19.873L18.634 13.772C18.5043 13.5383 18.3144 13.3434 18.0841 13.2077C17.8537 13.072 17.5913 13.0003 17.324 13H16.793C16.8843 12.6773 16.946 12.344 16.978 12H17.323C17.769 11.9999 18.2068 12.1191 18.5912 12.3452C18.9756 12.5713 19.2924 12.8962 19.509 13.286L21.051 16.063L23.144 16.621C23.6763 16.7629 24.1469 17.0767 24.4825 17.5136C24.8182 17.9505 25.0001 18.4861 25 19.037V20.25C25 20.5855 24.9036 20.9139 24.7222 21.1962C24.5409 21.4785 24.2822 21.7026 23.977 21.842C23.8969 22.4271 23.6123 22.9649 23.1736 23.3602C22.7349 23.7555 22.1704 23.9828 21.5802 24.0017C20.99 24.0206 20.4121 23.83 19.949 23.4636C19.4859 23.0972 19.1674 22.5787 19.05 22H14.95C14.8326 22.5787 14.5141 23.0972 14.051 23.4636C13.5879 23.83 13.01 24.0206 12.4198 24.0017C11.8296 23.9828 11.2651 23.7555 10.8264 23.3602C10.3877 22.9649 10.1031 22.4271 10.023 21.842C9.71782 21.7026 9.45913 21.4785 9.27776 21.1962C9.09638 20.9139 8.99997 20.5855 9 20.25V18.562ZM11 21.5C11 21.8978 11.158 22.2794 11.4393 22.5607C11.7206 22.842 12.1022 23 12.5 23C12.8978 23 13.2794 22.842 13.5607 22.5607C13.842 22.2794 14 21.8978 14 21.5C14 21.1022 13.842 20.7206 13.5607 20.4393C13.2794 20.158 12.8978 20 12.5 20C12.1022 20 11.7206 20.158 11.4393 20.4393C11.158 20.7206 11 21.1022 11 21.5ZM20 21.5C20 21.8978 20.158 22.2794 20.4393 22.5607C20.7206 22.842 21.1022 23 21.5 23C21.8978 23 22.2794 22.842 22.5607 22.5607C22.842 22.2794 23 21.8978 23 21.5C23 21.1022 22.842 20.7206 22.5607 20.4393C22.2794 20.158 21.8978 20 21.5 20C21.1022 20 20.7206 20.158 20.4393 20.4393C20.158 20.7206 20 21.1022 20 21.5Z" fill="#5A3DEE"/>
</svg>
