<svg width="32" height="32" viewBox="0 0 32 32" fill="none" xmlns="http://www.w3.org/2000/svg">
<rect width="32" height="32" rx="16" fill="#C4CAFF"/>
<path d="M12.6625 9H15V11C15 11.5531 15.4469 12 16 12C16.5531 12 17 11.5531 17 11V9H19.3375C20.1844 9 20.9406 9.53437 21.2219 10.3312L22.5562 14.1C22.2156 14.0344 21.8625 14 21.5 14C19.6406 14 17.9969 14.925 17 16.3375V15C17 14.4469 16.5531 14 16 14C15.4469 14 15 14.4469 15 15V17C15 17.5531 15.4469 18 16 18C16.0719 18 16.1437 17.9906 16.2125 17.9781C16.0719 18.4625 16 18.9719 16 19.5C16 19.6688 16.0063 19.8344 16.0219 20H16C15.4469 20 15 20.4469 15 21V23H8.70625C7.76562 23 7 22.2344 7 21.2937C7 21.1 7.03437 20.9063 7.09687 20.725L10.7781 10.3312C11.0625 9.53437 11.8156 9 12.6625 9ZM21.5 15C22.6935 15 23.8381 15.4741 24.682 16.318C25.5259 17.1619 26 18.3065 26 19.5C26 20.6935 25.5259 21.8381 24.682 22.682C23.8381 23.5259 22.6935 24 21.5 24C20.3065 24 19.1619 23.5259 18.318 22.682C17.4741 21.8381 17 20.6935 17 19.5C17 18.3065 17.4741 17.1619 18.318 16.318C19.1619 15.4741 20.3065 15 21.5 15ZM22.2062 19.5L23.3531 18.3531C23.5469 18.1594 23.5469 17.8406 23.3531 17.6469C23.1594 17.4531 22.8406 17.4531 22.6469 17.6469L21.5 18.7937L20.3531 17.6469C20.1594 17.4531 19.8406 17.4531 19.6469 17.6469C19.4531 17.8406 19.4531 18.1594 19.6469 18.3531L20.7937 19.5L19.6469 20.6469C19.4531 20.8406 19.4531 21.1594 19.6469 21.3531C19.8406 21.5469 20.1594 21.5469 20.3531 21.3531L21.5 20.2063L22.6469 21.3531C22.8406 21.5469 23.1594 21.5469 23.3531 21.3531C23.5469 21.1594 23.5469 20.8406 23.3531 20.6469L22.2062 19.5Z" fill="#5A3DEE"/>
</svg>
