<svg width="32" height="32" viewBox="0 0 32 32" fill="none" xmlns="http://www.w3.org/2000/svg">
<rect width="32" height="32" rx="16" fill="#C4CAFF"/>
<g clip-path="url(#clip0_90_277)">
<path fill-rule="evenodd" clip-rule="evenodd" d="M25.9321 19.0411L25.544 20.4898C25.4461 20.8548 25.2508 21.1651 24.9955 21.4073C24.9105 21.4877 24.819 21.5609 24.7218 21.6261L24.2846 23.2582C24.249 23.3917 24.1877 23.5114 24.108 23.6139C23.8683 23.9214 23.4599 24.0726 23.0599 23.9654L22.094 23.7067C21.5605 23.5639 21.244 23.0154 21.3868 22.482L21.6455 21.5161L13.918 19.4454L13.6593 20.4114C13.5165 20.9448 12.968 21.2614 12.4346 21.1186L11.4686 20.8598C11.0686 20.7526 10.7905 20.4173 10.7368 20.0314C10.719 19.9026 10.7258 19.7682 10.7615 19.6351L11.1986 18.0029C11.1469 17.8979 11.1042 17.7886 11.0708 17.6764C10.9708 17.3392 10.9568 16.9726 11.0546 16.6076L11.4427 15.1586C11.6086 14.5398 12.0477 14.0701 12.5955 13.8395C12.7797 13.7619 12.9745 13.7121 13.1733 13.692L13.7399 12.9348L14.7446 11.592C14.8524 11.4479 14.9693 11.3139 15.0946 11.1907C15.3446 10.9442 15.6268 10.7395 15.9302 10.5811C16.0821 10.5017 16.2393 10.4339 16.4005 10.3782C16.7233 10.2664 17.0627 10.2023 17.408 10.1895C17.7533 10.1767 18.1052 10.2151 18.4527 10.3082L22.2865 11.3354C22.634 11.4286 22.9577 11.5711 23.2505 11.7551C23.6875 12.0295 24.0578 12.3978 24.3346 12.8332C24.6102 13.267 24.7921 13.7657 24.8558 14.3017L25.0546 15.967L25.1668 16.9061C25.4912 17.1404 25.7386 17.466 25.8774 17.8414C26.0146 18.2126 26.0427 18.6286 25.9321 19.0411ZM12.763 16.027C12.918 15.4492 13.4074 15.1676 13.9871 15.3229C14.5665 15.4782 15.2036 16.5776 15.0486 17.1554C14.894 17.7332 14.0505 17.4039 13.4708 17.2486C12.8915 17.0932 12.608 16.6048 12.763 16.027ZM22.8699 14.5379L23.0686 16.2032L20.7158 15.5726L15.3408 14.1326L16.3455 12.7898C16.5251 12.5498 16.7725 12.3691 17.0558 12.271C17.3391 12.1729 17.6453 12.1619 17.9349 12.2395L21.7686 13.2667C22.213 13.3857 22.5693 13.6989 22.7505 14.1048C22.8108 14.2401 22.8518 14.3857 22.8699 14.5379ZM21.8105 18.967C21.9652 18.3895 23.0668 17.7557 23.6465 17.9111C24.2261 18.0664 24.5093 18.5551 24.3546 19.1326C24.1996 19.7104 23.7102 19.992 23.1305 19.8367C22.5508 19.6814 21.6558 19.5448 21.8105 18.967Z" fill="#5A3DEE"/>
<path d="M10.4768 14.9001L10.0886 16.3492C9.99458 16.7007 9.9752 17.0645 10.0133 17.4239L8.91333 18.3295C8.70801 18.4986 8.40364 18.3161 8.45645 18.0554L8.93895 15.6592C8.97208 15.4948 8.85583 15.3379 8.68895 15.322L6.25583 15.0861C5.99114 15.0604 5.90489 14.7164 6.12645 14.5692L8.16239 13.2161C8.30176 13.1232 8.33051 12.9301 8.22426 12.8007L6.67083 10.9129C6.50176 10.7076 6.68426 10.4036 6.9452 10.4561L9.34145 10.9386C9.50583 10.9717 9.6627 10.8554 9.67895 10.6886L9.91489 8.25543C9.94051 7.99043 10.2846 7.90449 10.4321 8.12605L11.7852 10.1617C11.878 10.3011 12.0711 10.3298 12.2005 10.2236L14.088 8.67011C14.2933 8.50105 14.5974 8.68355 14.5449 8.94418L14.1908 10.6992L14.1812 10.71C14.0997 10.8017 14.0182 10.8934 13.9436 10.9929L12.939 12.3357L12.6043 12.7832C11.5815 13.057 10.7549 13.8623 10.4768 14.9001Z" fill="#5A3DEE"/>
</g>
<defs>
<clipPath id="clip0_90_277">
<rect width="20" height="16" fill="white" transform="translate(6 8)"/>
</clipPath>
</defs>
</svg>
