<svg width="32" height="32" viewBox="0 0 32 32" fill="none" xmlns="http://www.w3.org/2000/svg">
<rect width="32" height="32" rx="16" fill="#9CF3E3"/>
<path d="M22.6663 14.3334C22.6663 18.4942 18.0505 22.8276 16.5005 24.1659C16.3561 24.2745 16.1803 24.3332 15.9997 24.3332C15.819 24.3332 15.6432 24.2745 15.4988 24.1659C13.9488 22.8276 9.33301 18.4942 9.33301 14.3334C9.33301 12.5653 10.0354 10.8696 11.2856 9.61937C12.5359 8.36913 14.2316 7.66675 15.9997 7.66675C17.7678 7.66675 19.4635 8.36913 20.7137 9.61937C21.964 10.8696 22.6663 12.5653 22.6663 14.3334Z" stroke="#12736D" stroke-width="1.66667" stroke-linecap="round" stroke-linejoin="round"/>
<path d="M15.9997 16.8334C17.3804 16.8334 18.4997 15.7141 18.4997 14.3334C18.4997 12.9527 17.3804 11.8334 15.9997 11.8334C14.619 11.8334 13.4997 12.9527 13.4997 14.3334C13.4997 15.7141 14.619 16.8334 15.9997 16.8334Z" stroke="#12736D" stroke-width="1.66667" stroke-linecap="round" stroke-linejoin="round"/>
</svg>
