<svg width="192" height="192" viewBox="0 0 192 192" fill="none" xmlns="http://www.w3.org/2000/svg">
<g clip-path="url(#clip0_86_5426)">
<rect width="192" height="192" rx="15" fill="#695BF9"/>
<g filter="url(#filter0_f_86_5426)">
<path d="M203.625 65.625L63.75 205.5H203.625V65.625Z" fill="#FAFAFA" fill-opacity="0.45"/>
</g>
<g filter="url(#filter1_f_86_5426)">
<path d="M-13.3125 126.375L126.562 -13.5H-13.3125V126.375Z" fill="#FAFAFA" fill-opacity="0.45"/>
</g>
<path d="M116.535 26.2202C119.244 26.2202 122.359 26.762 125.881 27.8457C129.403 28.7939 132.248 30.4194 134.415 32.7222C135.905 34.0768 135.702 34.4832 133.806 33.9414C131.909 33.6704 129.945 33.2641 127.913 32.7222C126.017 32.0449 123.917 31.7063 121.614 31.7063C113.216 31.5708 107.12 34.0091 103.327 39.0211C99.5344 43.8976 97.367 50.1288 96.8252 57.7145C96.4188 62.9974 96.4865 68.2804 97.0284 73.5633C97.7057 78.7107 98.4507 83.8582 99.2634 89.0057C100.076 94.1531 100.753 99.3006 101.295 104.448C101.973 109.596 102.04 114.811 101.499 120.094C101.363 121.584 101.16 122.464 100.889 122.735C100.753 123.006 100.55 122.938 100.279 122.532C100.144 122.126 99.9407 121.584 99.6698 120.906C99.5344 120.094 99.3989 119.416 99.2634 118.874C98.4507 113.456 97.4347 108.038 96.2156 102.619C94.9965 97.0655 93.8451 91.5117 92.7614 85.9578C91.6777 80.404 90.7972 74.8501 90.1199 69.2963C89.5781 63.7425 89.5781 58.1209 90.1199 52.4316C90.5263 48.7742 91.4068 45.3877 92.7614 42.2721C94.116 39.0211 95.8769 36.2442 98.0443 33.9414C100.347 31.5031 103.056 29.6067 106.172 28.2521C109.287 26.8975 112.742 26.2202 116.535 26.2202ZM80.3668 53.0411C80.7732 49.3837 81.7214 45.7263 83.2115 42.0689C84.7015 38.2761 86.6657 34.8896 89.104 31.9095C91.6777 28.7939 94.7255 26.3556 98.2475 24.5946C101.905 22.6982 105.969 21.75 110.439 21.75C110.574 21.75 110.913 21.8177 111.455 21.9532C112.132 21.9532 112.674 22.0209 113.08 22.1564C113.622 22.2918 113.825 22.4273 113.69 22.5628C113.69 22.6982 113.216 22.8337 112.268 22.9691C108.61 23.6464 105.224 24.8656 102.108 26.6265C98.9925 28.3875 96.2833 30.5549 93.9805 33.1286C91.6777 35.7023 89.7813 38.6147 88.2912 41.8657C86.9366 44.9813 86.1239 48.2323 85.8529 51.6188C85.3111 58.1209 85.582 64.6907 86.6657 71.3282C87.7494 77.8303 88.9685 84.3323 90.3231 90.8344C91.8132 97.3364 93.0323 103.906 93.9805 110.544C95.0642 117.046 95.3351 123.548 94.7933 130.05C94.5224 132.624 93.9128 135.333 92.9646 138.177C92.0164 141.022 90.7295 143.664 89.104 146.102C87.6139 148.54 85.7175 150.64 83.4147 152.401C81.1119 154.026 78.5381 155.042 75.6935 155.449C73.5261 155.719 72.5779 155.652 72.8488 155.245C73.2552 154.704 74.068 154.094 75.2871 153.417C80.1636 150.707 83.4824 147.524 85.2434 143.867C87.1398 140.209 88.3589 135.671 88.9008 130.253C89.4426 124.022 89.1717 117.655 88.088 111.153C87.1398 104.651 85.9884 98.1492 84.6338 91.6471C83.2792 85.1451 82.0601 78.7107 80.9764 72.3441C80.0282 65.8421 79.825 59.4078 80.3668 53.0411ZM74.8807 165.608C80.57 165.608 85.3788 164.592 89.3072 162.56C93.2355 160.393 96.4865 157.616 99.0602 154.229C101.634 150.707 103.598 146.711 104.953 142.241C106.307 137.636 107.188 132.895 107.594 128.018C108.136 121.922 108.001 115.827 107.188 109.731C106.375 103.635 105.427 97.6073 104.343 91.6471C103.395 85.5514 102.514 79.4558 101.702 73.3601C100.889 67.2644 100.753 61.101 101.295 54.8699C101.837 48.6387 103.734 43.6944 106.985 40.037C110.371 36.3796 115.383 34.5509 122.021 34.5509C124.323 34.5509 127.236 34.9573 130.758 35.7701C134.415 36.5828 137.395 37.7342 139.698 39.2243C142.136 40.8498 141.933 41.3239 139.089 40.6466C137.463 40.2402 135.363 39.7661 132.79 39.2243C130.216 38.6824 128.252 38.4115 126.897 38.4115C121.614 38.4115 117.076 39.5629 113.283 41.8657C109.491 44.1686 107.323 48.2323 106.781 54.0571C106.104 60.2882 106.24 66.5194 107.188 72.7505C108.136 78.8462 109.22 85.0096 110.439 91.2407C111.658 97.4719 112.674 103.703 113.487 109.934C114.435 116.165 114.638 122.396 114.096 128.628C113.69 133.775 112.674 138.787 111.048 143.664C109.423 148.54 107.12 152.943 104.14 156.871C101.16 160.799 97.4347 163.983 92.9646 166.421C88.6299 168.724 83.4824 169.875 77.5222 169.875C75.8967 169.875 73.797 169.604 71.2233 169.062C68.6496 168.52 66.0759 167.843 63.5021 167.03C60.9284 166.082 58.4901 164.998 56.1873 163.779C54.02 162.425 52.3944 161.002 51.3108 159.512C50.0916 158.158 50.498 157.819 52.5299 158.496C54.8327 159.716 57.6096 161.206 60.8607 162.967C64.2471 164.728 68.9205 165.608 74.8807 165.608ZM73.6616 158.496C77.0481 158.496 80.1636 157.955 83.0083 156.871C85.8529 155.787 88.7653 154.365 91.7454 152.604V153.213C91.7454 154.433 91.0681 155.652 89.7135 156.871C88.4944 157.955 86.9366 158.971 85.0402 159.919C83.1438 160.867 80.9764 161.612 78.5381 162.154C76.2353 162.696 73.8648 162.967 71.4265 162.967C70.4783 162.967 69.1914 162.831 67.5659 162.56C65.9404 162.154 64.2471 161.68 62.4862 161.138C60.8607 160.461 59.3029 159.716 57.8128 158.903C56.3228 158.09 55.3068 157.142 54.765 156.058C53.2749 154.433 52.8008 153.552 53.3427 153.417C53.8845 153.146 54.6295 153.349 55.5777 154.026C57.7451 154.704 60.1834 155.652 62.8926 156.871C65.7372 157.955 69.3269 158.496 73.6616 158.496Z" fill="white"/>
</g>
<defs>
<filter id="filter0_f_86_5426" x="-44.0625" y="-42.1875" width="355.5" height="355.5" filterUnits="userSpaceOnUse" color-interpolation-filters="sRGB">
<feFlood flood-opacity="0" result="BackgroundImageFix"/>
<feBlend mode="normal" in="SourceGraphic" in2="BackgroundImageFix" result="shape"/>
<feGaussianBlur stdDeviation="53.9062" result="effect1_foregroundBlur_86_5426"/>
</filter>
<filter id="filter1_f_86_5426" x="-121.125" y="-121.312" width="355.5" height="355.5" filterUnits="userSpaceOnUse" color-interpolation-filters="sRGB">
<feFlood flood-opacity="0" result="BackgroundImageFix"/>
<feBlend mode="normal" in="SourceGraphic" in2="BackgroundImageFix" result="shape"/>
<feGaussianBlur stdDeviation="53.9062" result="effect1_foregroundBlur_86_5426"/>
</filter>
<clipPath id="clip0_86_5426">
<rect width="192" height="192" rx="15" fill="white"/>
</clipPath>
</defs>
</svg>
