<svg width="512" height="512" viewBox="0 0 512 512" fill="none" xmlns="http://www.w3.org/2000/svg">
<g clip-path="url(#clip0_86_5399)">
<rect width="512" height="512" rx="40" fill="#695BF9"/>
<g filter="url(#filter0_f_86_5399)">
<path d="M543 175L170 548H543V175Z" fill="#FAFAFA" fill-opacity="0.45"/>
</g>
<g filter="url(#filter1_f_86_5399)">
<path d="M-35.5 337L337.5 -36H-35.5V337Z" fill="#FAFAFA" fill-opacity="0.45"/>
</g>
<path d="M310.759 69.9204C317.983 69.9204 326.291 71.3653 335.683 74.2551C345.075 76.7837 352.661 81.1184 358.441 87.2593C362.414 90.8715 361.872 91.9552 356.815 90.5103C351.758 89.7878 346.52 88.7042 341.102 87.2593C336.045 85.4531 330.446 84.5501 324.305 84.5501C301.909 84.1888 285.654 90.6909 275.539 104.056C265.425 117.06 259.645 133.677 258.2 153.905C257.117 167.993 257.297 182.081 258.742 196.169C260.548 209.895 262.535 223.622 264.703 237.348C266.87 251.075 268.676 264.802 270.121 278.528C271.927 292.255 272.108 306.162 270.663 320.25C270.301 324.223 269.76 326.571 269.037 327.294C268.676 328.016 268.134 327.835 267.412 326.752C267.05 325.668 266.509 324.223 265.786 322.417C265.425 320.25 265.064 318.444 264.703 316.999C262.535 302.55 259.826 288.101 256.575 273.652C253.324 258.841 250.253 244.031 247.364 229.221C244.474 214.411 242.126 199.6 240.32 184.79C238.875 169.98 238.875 154.989 240.32 139.818C241.403 130.064 243.751 121.034 247.364 112.726C250.976 104.056 255.672 96.6511 261.451 90.5103C267.592 84.0082 274.817 78.9511 283.125 75.3388C291.433 71.7266 300.644 69.9204 310.759 69.9204ZM214.312 141.443C215.395 131.69 217.924 121.937 221.897 112.184C225.871 102.07 231.109 93.0389 237.611 85.0919C244.474 76.7837 252.601 70.2817 261.993 65.5857C271.746 60.5286 282.583 58 294.504 58C294.865 58 295.768 58.1806 297.213 58.5418C299.019 58.5418 300.464 58.7224 301.548 59.0837C302.992 59.4449 303.534 59.8061 303.173 60.1674C303.173 60.5286 301.909 60.8898 299.38 61.251C289.627 63.0571 280.596 66.3082 272.288 71.0041C263.98 75.7 256.756 81.4796 250.615 88.3429C244.474 95.2062 239.417 102.973 235.443 111.642C231.831 119.95 229.664 128.62 228.941 137.65C227.496 154.989 228.219 172.508 231.109 190.209C233.998 207.547 237.249 224.886 240.862 242.225C244.835 259.564 248.086 277.083 250.615 294.783C253.505 312.122 254.227 329.461 252.782 346.8C252.06 353.663 250.434 360.888 247.906 368.473C245.377 376.059 241.945 383.103 237.611 389.605C233.637 396.107 228.58 401.706 222.439 406.402C216.298 410.737 209.435 413.446 201.849 414.529C196.07 415.252 193.541 415.071 194.264 413.988C195.347 412.543 197.515 410.917 200.766 409.111C213.77 401.887 222.62 393.398 227.316 383.645C232.373 373.892 235.624 361.791 237.069 347.342C238.514 330.725 237.791 313.748 234.901 296.409C232.373 279.07 229.302 261.731 225.69 244.392C222.078 227.054 218.827 209.895 215.937 192.918C213.408 175.579 212.867 158.421 214.312 141.443ZM199.682 441.621C214.853 441.621 227.677 438.912 238.152 433.494C248.628 427.714 257.297 420.309 264.161 411.278C271.024 401.887 276.262 391.23 279.874 379.31C283.486 367.028 285.834 354.385 286.918 341.381C288.363 325.126 288.002 308.871 285.834 292.616C283.667 276.361 281.138 260.286 278.248 244.392C275.72 228.137 273.372 211.882 271.205 195.627C269.037 179.372 268.676 162.936 270.121 146.32C271.566 129.703 276.623 116.519 285.292 106.765C294.323 97.0123 307.688 92.1358 325.388 92.1358C331.529 92.1358 339.296 93.2195 348.687 95.3868C358.44 97.5542 366.387 100.625 372.528 104.598C379.03 108.933 378.489 110.197 370.903 108.391C366.568 107.307 360.969 106.043 354.106 104.598C347.243 103.153 342.005 102.431 338.392 102.431C324.305 102.431 312.204 105.501 302.089 111.642C291.975 117.783 286.195 128.62 284.751 144.152C282.944 160.769 283.306 177.385 285.834 194.001C288.363 210.257 291.253 226.692 294.504 243.309C297.755 259.925 300.464 276.541 302.631 293.158C305.16 309.774 305.702 326.39 304.257 343.007C303.173 356.733 300.464 370.099 296.129 383.103C291.794 396.107 285.654 407.847 277.707 418.322C269.76 428.798 259.826 437.287 247.906 443.789C236.346 449.93 222.62 453 206.726 453C202.391 453 196.792 452.278 189.929 450.833C183.066 449.388 176.202 447.582 169.339 445.414C162.476 442.886 155.974 439.996 149.833 436.745C144.053 433.133 139.719 429.34 136.829 425.366C133.578 421.754 134.661 420.851 140.08 422.657C146.221 425.908 153.626 429.882 162.295 434.578C171.326 439.273 183.788 441.621 199.682 441.621ZM196.431 422.657C205.462 422.657 213.77 421.212 221.355 418.322C228.941 415.433 236.708 411.64 244.654 406.944V408.569C244.654 411.82 242.848 415.071 239.236 418.322C235.985 421.212 231.831 423.921 226.774 426.45C221.717 428.979 215.937 430.965 209.435 432.41C203.294 433.855 196.973 434.578 190.471 434.578C187.942 434.578 184.51 434.216 180.176 433.494C175.841 432.41 171.326 431.146 166.63 429.701C162.295 427.895 158.141 425.908 154.168 423.741C150.194 421.573 147.485 419.045 146.04 416.155C142.066 411.82 140.802 409.472 142.247 409.111C143.692 408.389 145.679 408.931 148.207 410.737C153.987 412.543 160.489 415.071 167.713 418.322C175.299 421.212 184.872 422.657 196.431 422.657Z" fill="white"/>
</g>
<defs>
<filter id="filter0_f_86_5399" x="-117.5" y="-112.5" width="948" height="948" filterUnits="userSpaceOnUse" color-interpolation-filters="sRGB">
<feFlood flood-opacity="0" result="BackgroundImageFix"/>
<feBlend mode="normal" in="SourceGraphic" in2="BackgroundImageFix" result="shape"/>
<feGaussianBlur stdDeviation="143.75" result="effect1_foregroundBlur_86_5399"/>
</filter>
<filter id="filter1_f_86_5399" x="-323" y="-323.5" width="948" height="948" filterUnits="userSpaceOnUse" color-interpolation-filters="sRGB">
<feFlood flood-opacity="0" result="BackgroundImageFix"/>
<feBlend mode="normal" in="SourceGraphic" in2="BackgroundImageFix" result="shape"/>
<feGaussianBlur stdDeviation="143.75" result="effect1_foregroundBlur_86_5399"/>
</filter>
<clipPath id="clip0_86_5399">
<rect width="512" height="512" rx="40" fill="white"/>
</clipPath>
</defs>
</svg>
