<svg width="512" height="512" viewBox="0 0 512 512" fill="none" xmlns="http://www.w3.org/2000/svg">
<g clip-path="url(#clip0_24_5877)">
<rect width="512" height="512" rx="40" fill="#695BF9"/>
<path d="M192.972 152.866C194.685 171.759 195.506 191.693 195.437 212.669C195.688 233.53 195.274 253.546 194.196 272.715C194.106 273.47 193.879 275.358 193.516 278.378C193.039 281.077 192.422 282.382 191.667 282.291C190.707 282.635 189.768 281.527 188.85 278.966C188.138 275.97 187.77 273.935 187.746 272.859C186.689 268.903 185.609 263.872 184.505 257.766C183.72 251.545 182.719 245.221 181.5 238.795C180.601 232.253 179.759 225.872 178.975 219.651C178.511 213.316 178.173 207.838 177.962 203.217C177.89 199.992 177.07 192.158 175.502 179.716C173.933 167.274 171.746 153.609 168.939 138.721C166.453 123.718 163.499 109.424 160.076 95.8406C156.654 82.2568 153.212 72.6532 149.752 67.0297C148.08 64.3781 147.564 62.9375 148.204 62.7081C148.844 62.4787 149.496 62.7868 150.161 63.6325C151.03 64.0433 151.9 64.4541 152.77 64.8649C158.241 69.0452 163.314 74.6327 167.987 81.6273C172.661 88.622 176.706 96.3836 180.124 104.912C183.746 113.006 186.569 121.386 188.591 130.054C190.933 138.606 192.394 146.21 192.972 152.866ZM134.543 57.8502C144.53 71.6101 151.706 87.1 156.071 104.32C160.32 121.22 163.141 139.173 164.534 158.18C166.246 177.073 167.433 196.515 168.095 216.506C168.756 236.498 170.161 256.042 172.308 275.14C174.431 293.163 177.618 310.624 181.867 327.524C186.437 344.309 193.522 360.554 203.123 376.259C203.51 374.314 204.069 372.849 204.8 371.865C205.851 370.766 206.845 369.507 207.781 368.087C206.405 364.246 205.028 360.405 203.652 356.563C202.16 352.402 201.001 348.663 200.174 345.347C199.347 342.031 198.91 339.298 198.862 337.148C198.814 334.998 199.43 333.693 200.711 333.234C201.031 333.12 201.638 333.805 202.531 335.291C203.745 336.662 204.913 338.411 206.036 340.537C207.045 342.343 208.111 344.309 209.234 346.435C210.242 348.241 210.861 349.464 211.09 350.105C212.328 352.551 213.176 354.414 213.635 355.695C214.094 356.975 214.93 358.301 216.144 359.672C216.67 359.123 217.515 358.459 218.681 357.68C220.052 356.466 221.481 355.412 222.967 354.518C216.308 330.896 211.788 306.688 209.406 281.895C206.909 256.781 204.995 231.279 203.664 205.386C202.755 188.734 201.41 171.877 199.631 154.815C198.057 137.318 194.321 119.331 188.423 100.855C187.849 99.254 188.043 98.2817 189.003 97.9375C189.323 97.8228 189.598 98.0856 189.827 98.7259C190.057 99.3661 190.606 99.8916 191.476 100.302C198.094 107.684 203.447 118.589 207.534 133.019C211.506 147.128 214.747 162.222 217.257 178.3C219.653 194.058 221.454 209.668 222.659 225.13C223.75 240.271 224.827 252.348 225.888 261.359C227.185 276.066 228.116 291.265 228.681 306.957C229.132 322.328 229.456 336.841 229.653 350.497C235.392 347.357 241.565 344.423 248.172 341.694C255.1 338.85 261.503 336.556 267.38 334.811C273.142 332.746 278.161 331.128 282.437 329.957C286.919 328.351 289.8 327.319 291.081 326.86C300.479 323.854 310.484 321.533 321.096 319.898C331.708 318.263 340.925 316.766 348.746 315.408C351.537 315.131 353.047 315.312 353.276 315.952C353.506 316.593 353.197 317.245 352.352 317.909C351.506 318.573 350.821 319.18 350.295 319.73C337.816 329.259 324.258 336.284 309.624 340.806C295.194 344.892 280.01 348.889 264.07 352.794C258.079 354.218 251.824 355.918 245.307 357.892C239.11 359.751 233.085 362.091 227.232 364.91C221.265 367.41 215.744 370.652 210.67 374.638C205.802 378.189 201.815 382.688 198.71 388.135C185.128 372.412 175.205 354.294 168.939 333.782C162.672 313.271 158.327 292.071 155.902 270.182C153.754 251.084 152.305 231.917 151.552 212.681C150.686 193.124 149.568 174.38 148.199 156.447C147.036 138.081 145.142 120.698 142.518 104.3C140.213 87.7869 136.377 72.5451 131.009 58.5745C130.961 56.4243 131.097 55.2919 131.418 55.1772C131.623 54.7424 132.115 55.1078 132.894 56.2736C133.558 57.1193 134.108 57.6448 134.543 57.8502ZM371.235 296.513C371.531 295.323 372.069 295.311 372.848 296.477C373.832 297.208 374.291 298.489 374.224 300.319C374.024 305.809 373.594 310.659 372.936 314.868C372.597 318.963 370.497 323.689 366.637 329.045C364.97 331.449 362.765 333.865 360.023 336.292C357.28 338.72 354.583 340.77 351.932 342.442C349.28 344.115 346.834 345.353 344.593 346.156C342.352 346.959 341.002 346.72 340.543 345.44C339.879 344.594 340.701 342.855 343.008 340.222C345.636 337.474 347.475 335.55 348.526 334.451C350.514 331.933 352.558 329.575 354.661 327.377C356.648 324.858 358.578 322.18 360.451 319.342C362.094 315.863 363.897 312.327 365.861 308.734C368.144 305.026 369.936 300.952 371.235 296.513ZM378.798 310.058C379.185 308.114 379.607 307.781 380.066 309.062C380.525 310.342 380.709 311.36 380.618 312.115C379.717 324.72 377.097 335.05 372.759 343.107C368.742 351.048 363.568 357.779 357.237 363.298C351.112 368.383 344.163 372.679 336.389 376.187C328.821 379.26 321.196 382.173 313.513 384.926C291.95 392.292 270.695 399.005 249.749 405.066C229.008 410.692 211.047 418.03 195.868 427.082C195.228 427.311 194.588 427.54 193.948 427.77C193.422 428.319 193.627 427.885 194.564 426.465C199.494 416.03 206.474 408.291 215.504 403.249C224.534 398.207 234.56 394.434 245.583 391.929C256.811 388.989 268.429 386.632 280.436 384.858C292.444 383.084 303.787 380.465 314.465 376.999C328.025 372.502 340.815 364.848 352.836 354.039C365.062 342.795 373.716 328.134 378.798 310.058ZM313.245 358.472C313.474 359.113 313.006 359.822 311.84 360.601C310.675 361.38 309.772 361.884 309.131 362.114C304.674 364.795 298.341 367.786 290.132 371.089C282.244 374.277 274.824 376.755 267.872 378.524C266.271 379.097 262.532 380.256 256.655 382.001C250.664 383.425 243.884 385.674 236.316 388.747C228.953 391.386 221.717 394.882 214.607 399.235C207.498 403.589 201.911 408.661 197.845 414.453C197.023 416.192 196.12 416.696 195.136 415.965C195.021 415.645 194.952 414.948 194.928 413.873C195.109 412.363 195.303 411.39 195.508 410.956C197.466 402.307 202.456 394.559 210.478 387.711C218.705 380.428 227.448 374.586 236.708 370.184C246.608 365.553 257.881 362.236 270.529 360.233C283.061 357.909 295.183 356.455 306.894 355.871C307.215 355.757 308.187 355.95 309.812 356.452C311.756 356.838 312.901 357.512 313.245 358.472Z" fill="white"/>
<g filter="url(#filter0_f_24_5877)">
<path d="M543 175L170 548H543V175Z" fill="#FAFAFA" fill-opacity="0.45"/>
</g>
<g filter="url(#filter1_f_24_5877)">
<path d="M-35.5 337L337.5 -36H-35.5V337Z" fill="#FAFAFA" fill-opacity="0.45"/>
</g>
</g>
<defs>
<filter id="filter0_f_24_5877" x="-117.5" y="-112.5" width="948" height="948" filterUnits="userSpaceOnUse" color-interpolation-filters="sRGB">
<feFlood flood-opacity="0" result="BackgroundImageFix"/>
<feBlend mode="normal" in="SourceGraphic" in2="BackgroundImageFix" result="shape"/>
<feGaussianBlur stdDeviation="143.75" result="effect1_foregroundBlur_24_5877"/>
</filter>
<filter id="filter1_f_24_5877" x="-323" y="-323.5" width="948" height="948" filterUnits="userSpaceOnUse" color-interpolation-filters="sRGB">
<feFlood flood-opacity="0" result="BackgroundImageFix"/>
<feBlend mode="normal" in="SourceGraphic" in2="BackgroundImageFix" result="shape"/>
<feGaussianBlur stdDeviation="143.75" result="effect1_foregroundBlur_24_5877"/>
</filter>
<clipPath id="clip0_24_5877">
<rect width="512" height="512" rx="40" fill="white"/>
</clipPath>
</defs>
</svg>
