<svg width="192" height="192" viewBox="0 0 192 192" fill="none" xmlns="http://www.w3.org/2000/svg">
<g clip-path="url(#clip0_24_5881)">
<rect width="192" height="192" rx="15" fill="#695BF9"/>
<path d="M72.3646 57.3249C73.0068 64.4095 73.3149 71.8848 73.2889 79.7508C73.3829 87.5738 73.2278 95.0796 72.8236 102.268C72.7896 102.551 72.7046 103.259 72.5685 104.392C72.3894 105.404 72.1583 105.893 71.8752 105.859C71.5151 105.988 71.163 105.573 70.8188 104.612C70.5518 103.489 70.4137 102.725 70.4047 102.322C70.0086 100.839 69.6034 98.952 69.1893 96.6622C68.8952 94.3293 68.5195 91.9579 68.0624 89.548C67.7253 87.0951 67.4096 84.7022 67.1155 82.3693C66.9415 79.9934 66.815 77.9391 66.7359 76.2064C66.7089 74.997 66.4013 72.0594 65.8131 67.3936C65.2249 62.7279 64.4046 57.6034 63.3523 52.0203C62.4199 46.3942 61.312 41.0342 60.0286 35.9402C58.7451 30.8463 57.4546 27.2449 56.1572 25.1361C55.5299 24.1418 55.3364 23.6016 55.5764 23.5155C55.8165 23.4295 56.0611 23.545 56.3102 23.8622C56.6363 24.0162 56.9625 24.1703 57.2886 24.3244C59.3404 25.892 61.2426 27.9873 62.9952 30.6102C64.7479 33.2332 66.2649 36.1438 67.5464 39.3421C68.9049 42.3772 69.9633 45.5199 70.7215 48.7701C71.5999 51.9773 72.1476 54.8289 72.3646 57.3249ZM50.4535 21.6938C54.1989 26.8538 56.8899 32.6625 58.5265 39.1199C60.1201 45.4573 61.1779 52.1899 61.7001 59.3176C62.3423 66.4022 62.7875 73.693 63.0355 81.1898C63.2836 88.6866 63.8102 96.0159 64.6155 103.178C65.4118 109.936 66.6067 116.484 68.2003 122.822C69.9139 129.116 72.5709 135.208 76.1712 141.097C76.3163 140.368 76.5259 139.818 76.8 139.449C77.1941 139.037 77.5667 138.565 77.9179 138.033C77.4017 136.592 76.8855 135.152 76.3693 133.711C75.8101 132.151 75.3755 130.749 75.0653 129.505C74.7552 128.262 74.5912 127.237 74.5732 126.43C74.5552 125.624 74.7863 125.135 75.2664 124.963C75.3865 124.92 75.6141 125.177 75.9492 125.734C76.4044 126.248 76.8425 126.904 77.2637 127.701C77.6418 128.379 78.0415 129.116 78.4626 129.913C78.8408 130.59 79.0728 131.049 79.1589 131.289C79.6231 132.207 79.9412 132.905 80.1132 133.386C80.2853 133.866 80.5989 134.363 81.0541 134.877C81.2512 134.671 81.5683 134.422 82.0054 134.13C82.5196 133.675 83.0553 133.28 83.6126 132.944C81.1156 124.086 79.4205 115.008 78.5273 105.711C77.5909 96.2931 76.8732 86.7295 76.3741 77.0198C76.033 70.7754 75.5288 64.4541 74.8616 58.0556C74.2714 51.4942 72.8704 44.7491 70.6586 37.8205C70.4435 37.2203 70.516 36.8556 70.8762 36.7266C70.9962 36.6836 71.0992 36.7821 71.1853 37.0222C71.2713 37.2623 71.4774 37.4594 71.8035 37.6134C74.2854 40.3815 76.2927 44.471 77.8252 49.8821C79.3148 55.1731 80.5302 60.8332 81.4715 66.8625C82.3698 72.7717 83.0451 78.6254 83.4972 84.4236C83.9063 90.1018 84.31 94.6305 84.7081 98.0097C85.1943 103.525 85.5434 109.224 85.7554 115.109C85.9245 120.873 86.046 126.315 86.12 131.436C88.2718 130.259 90.5867 129.159 93.0646 128.135C95.6626 127.069 98.0635 126.208 100.267 125.554C102.428 124.78 104.31 124.173 105.914 123.734C107.595 123.132 108.675 122.745 109.155 122.573C112.68 121.445 116.431 120.575 120.411 119.962C124.39 119.348 127.847 118.787 130.78 118.278C131.826 118.174 132.393 118.242 132.479 118.482C132.565 118.722 132.449 118.967 132.132 119.216C131.815 119.465 131.558 119.693 131.361 119.899C126.681 123.472 121.597 126.106 116.109 127.802C110.698 129.335 105.004 130.833 99.0264 132.298C96.7795 132.832 94.4341 133.469 91.9902 134.209C89.6663 134.907 87.407 135.784 85.2121 136.841C82.9743 137.779 80.904 138.995 79.0013 140.489C77.1756 141.821 75.6805 143.508 74.5161 145.551C69.4232 139.654 65.7018 132.86 63.3519 125.168C61.0021 117.476 59.3725 109.526 58.4632 101.318C57.6579 94.1567 57.1143 86.969 56.8322 79.7552C56.5071 72.4215 56.088 65.3923 55.5748 58.6678C55.1387 51.7802 54.4284 45.2617 53.4441 39.1124C52.5798 32.9201 51.1413 27.2044 49.1285 21.9654C49.1105 21.1591 49.1615 20.7345 49.2816 20.6914C49.3586 20.5284 49.5432 20.6654 49.8353 21.1026C50.0844 21.4197 50.2905 21.6168 50.4535 21.6938ZM139.213 111.192C139.324 110.746 139.526 110.742 139.818 111.179C140.187 111.453 140.359 111.933 140.334 112.619C140.259 114.678 140.098 116.497 139.851 118.076C139.724 119.611 138.936 121.383 137.489 123.392C136.864 124.293 136.037 125.199 135.008 126.11C133.98 127.02 132.969 127.789 131.974 128.416C130.98 129.043 130.063 129.507 129.222 129.808C128.382 130.11 127.876 130.02 127.704 129.54C127.455 129.223 127.763 128.57 128.628 127.583C129.613 126.553 130.303 125.831 130.697 125.419C131.443 124.475 132.209 123.591 132.998 122.766C133.743 121.822 134.467 120.818 135.169 119.753C135.785 118.449 136.462 117.123 137.198 115.775C138.054 114.385 138.726 112.857 139.213 111.192ZM142.049 116.272C142.194 115.543 142.353 115.418 142.525 115.898C142.697 116.378 142.766 116.76 142.732 117.043C142.394 121.77 141.411 125.644 139.785 128.665C138.278 131.643 136.338 134.167 133.964 136.237C131.667 138.144 129.061 139.755 126.146 141.07C123.308 142.223 120.448 143.315 117.567 144.347C109.481 147.109 101.511 149.627 93.6558 151.9C85.8778 154.009 79.1428 156.761 73.4506 160.156C73.2105 160.242 72.9704 160.328 72.7303 160.414C72.5333 160.62 72.6103 160.457 72.9614 159.925C74.8101 156.011 77.4276 153.109 80.8139 151.218C84.2002 149.328 87.9601 147.913 92.0937 146.973C96.3043 145.871 100.661 144.987 105.164 144.322C109.666 143.657 113.92 142.674 117.924 141.375C123.009 139.688 127.806 136.818 132.313 132.765C136.898 128.548 140.143 123.05 142.049 116.272ZM117.467 134.427C117.553 134.667 117.377 134.933 116.94 135.225C116.503 135.518 116.164 135.707 115.924 135.793C114.253 136.798 111.878 137.92 108.8 139.158C105.841 140.354 103.059 141.283 100.452 141.946C99.8516 142.161 98.4496 142.596 96.2458 143.25C93.9989 143.785 91.4565 144.628 88.6184 145.78C85.8573 146.77 83.1438 148.081 80.4778 149.713C77.8118 151.346 75.7165 153.248 74.1919 155.42C73.8838 156.072 73.5452 156.261 73.176 155.987C73.133 155.867 73.107 155.605 73.098 155.202C73.166 154.636 73.2385 154.271 73.3156 154.108C74.0499 150.865 75.9211 147.96 78.9292 145.392C82.0144 142.661 85.2932 140.47 88.7655 138.819C92.4779 137.083 96.7055 135.839 101.448 135.087C106.148 134.216 110.694 133.671 115.085 133.452C115.205 133.409 115.57 133.481 116.179 133.669C116.909 133.814 117.338 134.067 117.467 134.427Z" fill="white"/>
<g filter="url(#filter0_f_24_5881)">
<path d="M203.625 65.625L63.75 205.5H203.625V65.625Z" fill="#FAFAFA" fill-opacity="0.45"/>
</g>
<g filter="url(#filter1_f_24_5881)">
<path d="M-13.3125 126.375L126.562 -13.5H-13.3125V126.375Z" fill="#FAFAFA" fill-opacity="0.45"/>
</g>
</g>
<defs>
<filter id="filter0_f_24_5881" x="-44.0625" y="-42.1875" width="355.5" height="355.5" filterUnits="userSpaceOnUse" color-interpolation-filters="sRGB">
<feFlood flood-opacity="0" result="BackgroundImageFix"/>
<feBlend mode="normal" in="SourceGraphic" in2="BackgroundImageFix" result="shape"/>
<feGaussianBlur stdDeviation="53.9062" result="effect1_foregroundBlur_24_5881"/>
</filter>
<filter id="filter1_f_24_5881" x="-121.125" y="-121.312" width="355.5" height="355.5" filterUnits="userSpaceOnUse" color-interpolation-filters="sRGB">
<feFlood flood-opacity="0" result="BackgroundImageFix"/>
<feBlend mode="normal" in="SourceGraphic" in2="BackgroundImageFix" result="shape"/>
<feGaussianBlur stdDeviation="53.9062" result="effect1_foregroundBlur_24_5881"/>
</filter>
<clipPath id="clip0_24_5881">
<rect width="192" height="192" rx="15" fill="white"/>
</clipPath>
</defs>
</svg>
