<svg width="48" height="48" viewBox="0 0 48 48" fill="none" xmlns="http://www.w3.org/2000/svg">
<g clip-path="url(#clip0_24_5885)">
<rect width="48" height="48" rx="3.75" fill="#695BF9"/>
<path d="M18.0912 14.3312C18.2517 16.1024 18.3287 17.9712 18.3222 19.9377C18.3457 21.8934 18.3069 23.7699 18.2059 25.5671C18.1974 25.6379 18.1761 25.8148 18.1421 26.0979C18.0974 26.351 18.0396 26.4733 17.9688 26.4648C17.8788 26.497 17.7907 26.3931 17.7047 26.153C17.6379 25.8722 17.6034 25.6814 17.6012 25.5806C17.5021 25.2097 17.4009 24.738 17.2973 24.1655C17.2238 23.5823 17.1299 22.9895 17.0156 22.387C16.9313 21.7738 16.8524 21.1755 16.7789 20.5923C16.7354 19.9983 16.7037 19.4848 16.684 19.0516C16.6772 18.7492 16.6003 18.0148 16.4533 16.8484C16.3062 15.682 16.1012 14.4009 15.8381 13.0051C15.605 11.5985 15.328 10.2585 15.0071 8.98506C14.6863 7.71158 14.3637 6.81124 14.0393 6.28404C13.8825 6.03544 13.8341 5.90039 13.8941 5.87888C13.9541 5.85738 14.0153 5.88626 14.0776 5.96554C14.1591 6.00406 14.2406 6.04257 14.3221 6.08109C14.8351 6.47299 15.3106 6.99681 15.7488 7.65256C16.187 8.30831 16.5662 9.03596 16.8866 9.83551C17.2262 10.5943 17.4908 11.38 17.6804 12.1925C17.9 12.9943 18.0369 13.7072 18.0912 14.3312ZM12.6134 5.42346C13.5497 6.71345 14.2225 8.16562 14.6316 9.77998C15.03 11.3643 15.2945 13.0475 15.425 14.8294C15.5856 16.6006 15.6969 18.4232 15.7589 20.2975C15.8209 22.1717 15.9526 24.004 16.1539 25.7944C16.3529 27.484 16.6517 29.121 17.0501 30.7054C17.4785 32.279 18.1427 33.8019 19.0428 35.2742C19.0791 35.0919 19.1315 34.9546 19.2 34.8623C19.2985 34.7593 19.3917 34.6412 19.4795 34.5082C19.3504 34.1481 19.2214 33.7879 19.0923 33.4278C18.9525 33.0376 18.8439 32.6871 18.7663 32.3763C18.6888 32.0654 18.6478 31.8092 18.6433 31.6076C18.6388 31.406 18.6966 31.2837 18.8166 31.2407C18.8466 31.23 18.9035 31.2942 18.9873 31.4335C19.1011 31.5621 19.2106 31.726 19.3159 31.9254C19.4105 32.0947 19.5104 32.279 19.6157 32.4783C19.7102 32.6476 19.7682 32.7623 19.7897 32.8223C19.9058 33.0517 19.9853 33.2263 20.0283 33.3464C20.0713 33.4664 20.1497 33.5907 20.2635 33.7193C20.3128 33.6678 20.3921 33.6055 20.5014 33.5325C20.6299 33.4187 20.7638 33.3199 20.9031 33.2361C20.2789 31.0215 19.8551 28.752 19.6318 26.4277C19.3977 24.0733 19.2183 21.6824 19.0935 19.2549C19.0082 17.6939 18.8822 16.1135 18.7154 14.5139C18.5678 12.8735 18.2176 11.1873 17.6646 9.45512C17.6109 9.30507 17.629 9.21391 17.719 9.18164C17.7491 9.17089 17.7748 9.19553 17.7963 9.25555C17.8178 9.31557 17.8693 9.36484 17.9509 9.40336C18.5714 10.0954 19.0732 11.1178 19.4563 12.4705C19.8287 13.7933 20.1325 15.2083 20.3679 16.7156C20.5925 18.1929 20.7613 19.6564 20.8743 21.1059C20.9766 22.5254 21.0775 23.6576 21.177 24.5024C21.2986 25.8812 21.3858 27.3061 21.4389 28.7772C21.4811 30.2182 21.5115 31.5789 21.53 32.8591C22.068 32.5647 22.6467 32.2896 23.2662 32.0338C23.9157 31.7672 24.5159 31.5521 25.0668 31.3885C25.607 31.195 26.0776 31.0433 26.4785 30.9335C26.8987 30.783 27.1688 30.6862 27.2888 30.6432C28.1699 30.3613 29.1079 30.1437 30.1027 29.9904C31.0976 29.8371 31.9617 29.6968 32.695 29.5695C32.9566 29.5435 33.0981 29.5605 33.1196 29.6205C33.1411 29.6806 33.1123 29.7417 33.033 29.804C32.9537 29.8663 32.8894 29.9232 32.8402 29.9747C31.6702 30.868 30.3992 31.5266 29.0272 31.9505C27.6744 32.3337 26.2509 32.7083 24.7566 33.0744C24.1949 33.208 23.6085 33.3673 22.9976 33.5524C22.4166 33.7267 21.8517 33.946 21.303 34.2103C20.7436 34.4447 20.226 34.7487 19.7503 35.1223C19.2939 35.4552 18.9201 35.877 18.629 36.3877C17.3558 34.9136 16.4254 33.2151 15.838 31.2921C15.2505 29.3691 14.8431 27.3816 14.6158 25.3296C14.4145 23.5392 14.2786 21.7422 14.208 19.9388C14.1268 18.1054 14.022 16.3481 13.8937 14.6669C13.7847 12.945 13.6071 11.3154 13.361 9.7781C13.1449 8.23002 12.7853 6.8011 12.2821 5.49136C12.2776 5.28978 12.2904 5.18362 12.3204 5.17286C12.3397 5.1321 12.3858 5.16636 12.4588 5.27565C12.5211 5.35493 12.5726 5.4042 12.6134 5.42346ZM34.8033 27.7981C34.831 27.6866 34.8814 27.6854 34.9545 27.7947C35.0467 27.8633 35.0898 27.9833 35.0835 28.1549C35.0647 28.6696 35.0245 29.1242 34.9627 29.5189C34.9309 29.9028 34.7341 30.3458 34.3722 30.848C34.2159 31.0733 34.0092 31.2998 33.7521 31.5274C33.495 31.755 33.2422 31.9472 32.9936 32.104C32.745 32.2608 32.5156 32.3768 32.3056 32.4521C32.0955 32.5274 31.9689 32.505 31.9259 32.385C31.8636 32.3057 31.9407 32.1426 32.157 31.8958C32.4034 31.6382 32.5758 31.4579 32.6743 31.3548C32.8607 31.1187 33.0524 30.8976 33.2494 30.6916C33.4357 30.4555 33.6167 30.2044 33.7923 29.9383C33.9463 29.6122 34.1154 29.2807 34.2995 28.9438C34.5135 28.5962 34.6815 28.2143 34.8033 27.7981ZM35.5123 29.068C35.5486 28.8856 35.5882 28.8545 35.6312 28.9746C35.6742 29.0946 35.6915 29.19 35.683 29.2608C35.5984 30.4425 35.3528 31.411 34.9462 32.1663C34.5695 32.9108 34.0845 33.5418 33.491 34.0592C32.9168 34.5359 32.2653 34.9387 31.5365 35.2675C30.827 35.5556 30.1121 35.8287 29.3918 36.0868C27.3703 36.7773 25.3777 37.4067 23.4139 37.9749C21.4695 38.5023 19.7857 39.1903 18.3627 40.0389C18.3026 40.0604 18.2426 40.0819 18.1826 40.1034C18.1333 40.1549 18.1526 40.1142 18.2404 39.9811C18.7025 39.0028 19.3569 38.2772 20.2035 37.8046C21.0501 37.3319 21.99 36.9781 23.0234 36.7433C24.0761 36.4677 25.1652 36.2468 26.2909 36.0804C27.4166 35.9141 28.48 35.6686 29.4811 35.3437C30.7523 34.922 31.9514 34.2045 33.0784 33.1911C34.2245 32.137 35.0359 30.7626 35.5123 29.068ZM29.3667 33.6068C29.3882 33.6668 29.3443 33.7333 29.235 33.8064C29.1257 33.8794 29.0411 33.9266 28.9811 33.9482C28.5631 34.1995 27.9694 34.48 27.1999 34.7896C26.4604 35.0884 25.7647 35.3208 25.113 35.4866C24.9629 35.5404 24.6124 35.649 24.0614 35.8126C23.4997 35.9461 22.8641 36.157 22.1546 36.4451C21.4643 36.6924 20.786 37.0202 20.1194 37.4283C19.4529 37.8365 18.9291 38.312 18.548 38.855C18.4709 39.018 18.3863 39.0653 18.294 38.9968C18.2833 38.9668 18.2767 38.9013 18.2745 38.8006C18.2915 38.659 18.3096 38.5678 18.3289 38.5271C18.5125 37.7163 18.9803 36.9899 19.7323 36.3479C20.5036 35.6651 21.3233 35.1174 22.1914 34.7048C23.1195 34.2706 24.1764 33.9596 25.3621 33.7718C26.537 33.554 27.6734 33.4177 28.7714 33.3629C28.8014 33.3522 28.8925 33.3703 29.0448 33.4173C29.2271 33.4536 29.3344 33.5167 29.3667 33.6068Z" fill="white"/>
<g filter="url(#filter0_f_24_5885)">
<path d="M50.9062 16.4062L15.9375 51.375H50.9062V16.4062Z" fill="#FAFAFA" fill-opacity="0.45"/>
</g>
<g filter="url(#filter1_f_24_5885)">
<path d="M-3.32812 31.5938L31.6406 -3.375H-3.32812V31.5938Z" fill="#FAFAFA" fill-opacity="0.45"/>
</g>
</g>
<defs>
<filter id="filter0_f_24_5885" x="-11.0156" y="-10.5469" width="88.875" height="88.875" filterUnits="userSpaceOnUse" color-interpolation-filters="sRGB">
<feFlood flood-opacity="0" result="BackgroundImageFix"/>
<feBlend mode="normal" in="SourceGraphic" in2="BackgroundImageFix" result="shape"/>
<feGaussianBlur stdDeviation="13.4766" result="effect1_foregroundBlur_24_5885"/>
</filter>
<filter id="filter1_f_24_5885" x="-30.2812" y="-30.3281" width="88.875" height="88.875" filterUnits="userSpaceOnUse" color-interpolation-filters="sRGB">
<feFlood flood-opacity="0" result="BackgroundImageFix"/>
<feBlend mode="normal" in="SourceGraphic" in2="BackgroundImageFix" result="shape"/>
<feGaussianBlur stdDeviation="13.4766" result="effect1_foregroundBlur_24_5885"/>
</filter>
<clipPath id="clip0_24_5885">
<rect width="48" height="48" rx="3.75" fill="white"/>
</clipPath>
</defs>
</svg>
