<svg width="32" height="32" viewBox="0 0 32 32" fill="none" xmlns="http://www.w3.org/2000/svg">
<g clip-path="url(#clip0_86_5434)">
<rect width="32" height="32" rx="2.5" fill="#695BF9"/>
<g filter="url(#filter0_f_86_5434)">
<path d="M33.9375 10.9375L10.625 34.25H33.9375V10.9375Z" fill="#FAFAFA" fill-opacity="0.45"/>
</g>
<g filter="url(#filter1_f_86_5434)">
<path d="M-2.21875 21.0625L21.0938 -2.25H-2.21875V21.0625Z" fill="#FAFAFA" fill-opacity="0.45"/>
</g>
<path d="M19.4224 4.37003C19.874 4.37003 20.3932 4.46033 20.9802 4.64095C21.5672 4.79898 22.0413 5.0699 22.4025 5.4537C22.6509 5.67947 22.617 5.7472 22.3009 5.65689C21.9849 5.61174 21.6575 5.54401 21.3189 5.4537C21.0028 5.34082 20.6528 5.28438 20.269 5.28438C18.8693 5.2618 17.8533 5.66818 17.2212 6.50351C16.5891 7.31627 16.2278 8.35479 16.1375 9.61908C16.0698 10.4996 16.0811 11.3801 16.1714 12.2605C16.2843 13.1185 16.4084 13.9764 16.5439 14.8343C16.6794 15.6922 16.7922 16.5501 16.8826 17.408C16.9954 18.2659 17.0067 19.1351 16.9164 20.0156C16.8938 20.2639 16.86 20.4107 16.8148 20.4558C16.7922 20.501 16.7584 20.4897 16.7132 20.422C16.6907 20.3543 16.6568 20.2639 16.6116 20.1511C16.5891 20.0156 16.5665 19.9027 16.5439 19.8124C16.4084 18.9094 16.2391 18.0063 16.0359 17.1032C15.8327 16.1776 15.6408 15.2519 15.4602 14.3263C15.2796 13.4007 15.1329 12.475 15.02 11.5494C14.9297 10.6237 14.9297 9.68681 15.02 8.7386C15.0877 8.12903 15.2345 7.56461 15.4602 7.04535C15.686 6.50352 15.9795 6.0407 16.3407 5.65689C16.7245 5.25051 17.1761 4.93444 17.6953 4.70868C18.2146 4.48291 18.7903 4.37003 19.4224 4.37003ZM13.3945 8.84019C13.4622 8.23062 13.6202 7.62106 13.8686 7.01149C14.1169 6.37934 14.4443 5.81493 14.8507 5.31824C15.2796 4.79898 15.7876 4.3926 16.3746 4.09911C16.9842 3.78304 17.6614 3.625 18.4065 3.625C18.4291 3.625 18.4855 3.63629 18.5758 3.65886C18.6887 3.65886 18.779 3.67015 18.8467 3.69273C18.937 3.71531 18.9709 3.73788 18.9483 3.76046C18.9483 3.78304 18.8693 3.80561 18.7113 3.82819C18.1017 3.94107 17.5373 4.14426 17.018 4.43776C16.4988 4.73125 16.0472 5.09248 15.6634 5.52143C15.2796 5.95039 14.9635 6.43578 14.7152 6.97762C14.4894 7.49688 14.354 8.03872 14.3088 8.60314C14.2185 9.68681 14.2637 10.7818 14.4443 11.888C14.6249 12.9717 14.8281 14.0554 15.0539 15.1391C15.3022 16.2227 15.5054 17.3177 15.6634 18.424C15.844 19.5076 15.8892 20.5913 15.7989 21.675C15.7537 22.1039 15.6521 22.5555 15.4941 23.0296C15.3361 23.5037 15.1216 23.9439 14.8507 24.3503C14.6023 24.7567 14.2862 25.1066 13.9024 25.4001C13.5186 25.671 13.0897 25.8404 12.6156 25.9081C12.2544 25.9532 12.0963 25.942 12.1415 25.8742C12.2092 25.7839 12.3447 25.6823 12.5479 25.5694C13.3606 25.1179 13.9137 24.5874 14.2072 23.9778C14.5233 23.3682 14.7265 22.6119 14.8168 21.7088C14.9071 20.6703 14.862 19.6092 14.6813 18.5255C14.5233 17.4419 14.3314 16.3582 14.1056 15.2745C13.8799 14.1908 13.6767 13.1185 13.4961 12.0574C13.338 10.9737 13.3042 9.90129 13.3945 8.84019ZM12.4801 27.6013C13.4283 27.6013 14.2298 27.432 14.8845 27.0934C15.5392 26.7321 16.0811 26.2693 16.51 25.7049C16.939 25.1179 17.2664 24.4519 17.4921 23.7069C17.7179 22.9393 17.8646 22.1491 17.9324 21.3363C18.0227 20.3204 18.0001 19.3044 17.8646 18.2885C17.7292 17.2725 17.5711 16.2679 17.3905 15.2745C17.2325 14.2586 17.0857 13.2426 16.9503 12.2267C16.8148 11.2107 16.7922 10.1835 16.8826 9.14498C16.9729 8.10645 17.2889 7.28241 17.8308 6.67284C18.3952 6.06327 19.2305 5.75849 20.3368 5.75849C20.7206 5.75849 21.206 5.82622 21.793 5.96168C22.4025 6.09714 22.8992 6.28904 23.283 6.53738C23.6894 6.8083 23.6555 6.88732 23.1814 6.77443C22.9105 6.7067 22.5606 6.62769 22.1316 6.53738C21.7027 6.44707 21.3753 6.40192 21.1495 6.40192C20.269 6.40192 19.5127 6.59382 18.8806 6.97762C18.2484 7.36143 17.8872 8.03872 17.7969 9.00952C17.684 10.048 17.7066 11.0866 17.8646 12.1251C18.0227 13.141 18.2033 14.1683 18.4065 15.2068C18.6097 16.2453 18.779 17.2838 18.9144 18.3224C19.0725 19.3609 19.1063 20.3994 19.016 21.4379C18.9483 22.2958 18.779 23.1312 18.5081 23.9439C18.2372 24.7567 17.8533 25.4904 17.3567 26.1451C16.86 26.7999 16.2391 27.3304 15.4941 27.7368C14.7716 28.1206 13.9137 28.3125 12.9204 28.3125C12.6494 28.3125 12.2995 28.2673 11.8706 28.177C11.4416 28.0867 11.0126 27.9739 10.5837 27.8384C10.1547 27.6804 9.74835 27.4997 9.36455 27.2966C9.00333 27.0708 8.73241 26.8337 8.55179 26.5854C8.3486 26.3596 8.41633 26.3032 8.75498 26.4161C9.13879 26.6193 9.60161 26.8676 10.1434 27.1611C10.7079 27.4546 11.4868 27.6013 12.4801 27.6013ZM12.2769 26.4161C12.8413 26.4161 13.3606 26.3258 13.8347 26.1451C14.3088 25.9645 14.7942 25.7275 15.2909 25.434V25.5356C15.2909 25.7388 15.178 25.942 14.9523 26.1451C14.7491 26.3258 14.4894 26.4951 14.1734 26.6531C13.8573 26.8112 13.4961 26.9353 13.0897 27.0256C12.7059 27.1159 12.3108 27.1611 11.9044 27.1611C11.7464 27.1611 11.5319 27.1385 11.261 27.0934C10.9901 27.0256 10.7079 26.9466 10.4144 26.8563C10.1434 26.7434 9.88381 26.6193 9.63547 26.4838C9.38713 26.3483 9.2178 26.1903 9.1275 26.0097C8.87915 25.7388 8.80014 25.592 8.89044 25.5694C8.98075 25.5243 9.10492 25.5582 9.26296 25.671C9.62418 25.7839 10.0306 25.942 10.4821 26.1451C10.9562 26.3258 11.5545 26.4161 12.2769 26.4161Z" fill="white"/>
</g>
<defs>
<filter id="filter0_f_86_5434" x="-7.34375" y="-7.03125" width="59.25" height="59.25" filterUnits="userSpaceOnUse" color-interpolation-filters="sRGB">
<feFlood flood-opacity="0" result="BackgroundImageFix"/>
<feBlend mode="normal" in="SourceGraphic" in2="BackgroundImageFix" result="shape"/>
<feGaussianBlur stdDeviation="8.98438" result="effect1_foregroundBlur_86_5434"/>
</filter>
<filter id="filter1_f_86_5434" x="-20.1875" y="-20.2188" width="59.25" height="59.25" filterUnits="userSpaceOnUse" color-interpolation-filters="sRGB">
<feFlood flood-opacity="0" result="BackgroundImageFix"/>
<feBlend mode="normal" in="SourceGraphic" in2="BackgroundImageFix" result="shape"/>
<feGaussianBlur stdDeviation="8.98438" result="effect1_foregroundBlur_86_5434"/>
</filter>
<clipPath id="clip0_86_5434">
<rect width="32" height="32" rx="2.5" fill="white"/>
</clipPath>
</defs>
</svg>
