<svg width="32" height="32" viewBox="0 0 32 32" fill="none" xmlns="http://www.w3.org/2000/svg">
<rect width="32" height="32" rx="16" fill="#C4CAFF"/>
<path d="M15.3275 7.25C15.0488 7.25001 14.7782 7.34313 14.5585 7.51457C14.3388 7.68601 14.1827 7.92594 14.115 8.19625L12.32 15.375H16.625C16.7908 15.375 16.9497 15.4409 17.0669 15.5581C17.1842 15.6753 17.25 15.8342 17.25 16C17.25 16.1658 17.1842 16.3247 17.0669 16.4419C16.9497 16.5592 16.7908 16.625 16.625 16.625H12.0075L11.3825 19.125H17.5625C17.7283 19.125 17.8872 19.1908 18.0044 19.3081C18.1217 19.4253 18.1875 19.5842 18.1875 19.75C18.1875 19.9158 18.1217 20.0747 18.0044 20.1919C17.8872 20.3092 17.7283 20.375 17.5625 20.375H11.07L10.2875 23.5H7.875C7.70924 23.5 7.55027 23.5658 7.43306 23.6831C7.31585 23.8003 7.25 23.9592 7.25 24.125C7.25 24.2908 7.31585 24.4497 7.43306 24.5669C7.55027 24.6842 7.70924 24.75 7.875 24.75H24.125C24.2908 24.75 24.4497 24.6842 24.5669 24.5669C24.6842 24.4497 24.75 24.2908 24.75 24.125C24.75 23.9592 24.6842 23.8003 24.5669 23.6831C24.4497 23.5658 24.2908 23.5 24.125 23.5H21.7113L17.8862 8.19625C17.8184 7.92553 17.662 7.68529 17.4418 7.5138C17.2216 7.34232 16.9503 7.24945 16.6712 7.25H15.3275Z" fill="#5A3DEE"/>
</svg>
