<svg width="32" height="32" viewBox="0 0 32 32" fill="none" xmlns="http://www.w3.org/2000/svg">
<rect width="32" height="32" rx="16" fill="#C4CAFF"/>
<path d="M15.9985 6.97656C16.8188 6.97656 17.3632 7.38602 18.0934 7.79168C18.7855 8.17617 19.6555 8.5059 20.8825 8.25535C21.4647 8.83738 22.0563 9.41953 22.6871 9.81379C23.2034 10.1364 23.7835 10.3286 24.3621 10.2378C24.1961 11.5441 23.4029 12.8218 22.5737 13.4906C20.387 12.7659 18.1948 12.4034 16.0026 12.4034C13.8084 12.4034 11.6142 12.7666 9.42551 13.4926C8.59543 12.8243 7.8009 11.5454 7.63477 10.2379C8.21328 10.3287 8.79352 10.1364 9.30977 9.81383C9.94062 9.41957 10.5321 8.83746 11.1145 8.25543C12.3413 8.50594 13.2114 8.17621 13.9035 7.79176C14.6338 7.38594 15.1782 6.97656 15.9985 6.97656ZM16.0026 7.73984C15.2286 7.73984 13.9256 8.78586 13.9256 8.78586C13.9256 8.78586 14.7545 11.9239 16.0026 11.9239C17.2507 11.9239 18.0796 8.78586 18.0796 8.78586C18.0796 8.78586 16.7766 7.73984 16.0026 7.73984ZM16.0026 13.1039C18.0647 13.1039 20.127 13.441 22.1941 14.1091C22.2793 14.6353 22.1352 15.0263 21.8251 15.3879C21.479 15.7915 20.898 16.1341 20.2095 16.3922C18.8321 16.9085 17.0461 17.0913 16.0025 17.0913C14.959 17.0913 13.1731 16.9085 11.7958 16.3922C11.1071 16.1341 10.5262 15.7916 10.1802 15.3879C9.87 15.0263 9.72578 14.6354 9.81102 14.1092C11.8782 13.441 13.9404 13.1039 16.0025 13.1039H16.0026ZM22.7693 15.3362C23.1528 15.4292 23.8213 15.6399 23.9414 16C24.2696 16.9843 23.2804 18.492 22.5324 19.4434C22.7385 18.5838 22.8496 17.6695 22.8496 16.7215C22.8496 16.2505 22.822 15.7879 22.7693 15.3362ZM9.23605 15.3362C9.18248 15.796 9.15567 16.2585 9.15574 16.7214C9.15574 17.6695 9.2668 18.5838 9.47293 19.4433C8.72488 18.492 7.7357 16.9842 8.06395 16C8.18398 15.6398 8.85246 15.4292 9.23602 15.3361L9.23605 15.3362ZM22.1278 16.0851C22.1398 16.2951 22.1464 16.5072 22.1464 16.7214C22.1464 19.0407 21.4382 21.1338 20.3143 22.6318C19.1904 24.1297 17.6696 25.0268 16.0025 25.0268C14.3356 25.0268 12.8148 24.1297 11.6909 22.6318C10.5671 21.1338 9.85891 19.0407 9.85891 16.7214C9.85891 16.5071 9.86555 16.2951 9.87742 16.085C10.1977 16.3841 10.589 16.6268 11.0194 16.8284C10.8526 17.5393 11.0298 18.4236 11.492 18.8856C12.3425 19.7358 14.25 19.7358 15.1006 18.8856C15.364 18.6222 15.477 18.2025 15.4621 17.7814C15.6548 17.7898 15.8371 17.7943 16.0026 17.7943C16.1682 17.7943 16.3505 17.7898 16.5432 17.7814C16.5283 18.2025 16.6413 18.6222 16.9048 18.8856C17.7554 19.7358 19.6628 19.7358 20.5133 18.8856C20.9755 18.4236 21.1527 17.5395 20.9859 16.8285C21.4164 16.6269 21.8077 16.3841 22.1279 16.0851H22.1278ZM16.0026 20.6892C15.1005 22.132 13.2962 22.3123 12.3941 22.3123C13.2962 23.0338 16.0025 23.0338 16.0025 22.3123C16.0025 23.0338 18.709 23.0338 19.6111 22.3123C18.709 22.3123 16.9047 22.132 16.0025 20.6892H16.0026Z" fill="#5A3DEE"/>
</svg>
